<?xml version="1.0" standalone="no"?>
<!DOCTYPE svg PUBLIC "-//W3C//DTD SVG 20010904//EN"
 "http://www.w3.org/TR/2001/REC-SVG-20010904/DTD/svg10.dtd">
<svg version="1.0" xmlns="http://www.w3.org/2000/svg"
 width="225.000000pt" height="225.000000pt" viewBox="0 0 225.000000 225.000000"
 preserveAspectRatio="xMidYMid meet">
<metadata>
Created by potrace 1.13, written by Peter Selinger 2001-2015
</metadata>
<g transform="translate(0.000000,225.000000) scale(0.100000,-0.100000)"
fill="#000000" stroke="none">
<path d="M952 2041 c-212 -66 -314 -171 -377 -386 -33 -113 -42 -230 -26 -331
l13 -76 -29 -30 c-25 -26 -28 -36 -26 -88 1 -60 30 -180 43 -180 4 0 12 15 18
33 9 26 10 14 5 -63 -15 -246 -16 -239 60 -390 141 -283 144 -286 280 -340
226 -89 370 -58 546 121 106 107 161 200 205 341 31 99 31 132 0 136 -36 5
-81 -51 -105 -129 -20 -66 -81 -164 -123 -198 -21 -18 -37 -4 -75 66 -17 32
-33 49 -49 51 -21 3 -21 1 -10 -22 16 -36 8 -39 -39 -16 -30 14 -60 19 -110
18 -37 0 -91 3 -120 7 -39 6 -59 4 -83 -9 l-32 -16 14 22 c9 13 35 33 59 46
39 21 55 23 142 20 97 -3 99 -3 123 25 31 36 32 82 2 100 -28 17 -247 16 -290
-2 -25 -9 -28 -16 -28 -55 0 -36 -8 -58 -40 -107 -22 -34 -40 -67 -40 -74 0
-7 -8 -19 -18 -28 -17 -16 -20 -16 -39 6 -29 31 -37 50 -68 157 -28 98 -64
194 -92 244 -8 15 -18 57 -21 92 -5 63 -4 64 21 64 14 0 46 -9 72 -20 59 -25
186 -28 205 -5 11 13 6 15 -34 15 -33 0 -46 4 -46 14 0 32 83 35 140 6 27 -14
41 -29 46 -48 10 -47 24 -74 36 -70 17 6 38 92 38 155 0 48 -3 53 -37 80 -70
55 -110 73 -179 83 -109 15 -159 12 -226 -15 -34 -14 -63 -25 -65 -25 -2 0 -3
20 -3 44 0 32 10 64 36 112 l35 67 -6 111 c-5 96 -4 116 12 146 16 30 23 35
53 34 19 -1 69 -14 110 -30 75 -28 76 -29 295 -28 198 1 228 3 300 24 44 12
97 25 117 27 35 5 38 3 59 -39 21 -39 23 -56 22 -173 -1 -108 2 -135 17 -160
26 -44 32 -83 20 -121 -16 -46 -42 -52 -101 -19 -93 50 -273 44 -354 -13 -49
-34 -54 -60 -19 -101 l27 -32 87 7 c59 4 94 3 108 -5 35 -18 26 -30 -28 -37
-53 -7 -64 -18 -27 -28 60 -16 111 1 208 71 27 19 55 33 63 30 7 -3 19 -29 26
-59 18 -81 41 -148 50 -148 14 0 32 165 25 232 -3 35 -9 176 -13 313 -9 306
-11 313 -137 434 -128 123 -247 175 -425 185 -97 5 -112 3 -198 -23z m282
-1562 c90 -17 108 -25 104 -52 -3 -25 6 -24 -198 -6 -117 10 -176 12 -220 7
-31 -4 -41 30 -14 49 23 16 241 18 328 2z"/>
</g>
</svg>
