<?xml version="1.0" standalone="no"?>
<!DOCTYPE svg PUBLIC "-//W3C//DTD SVG 20010904//EN"
 "http://www.w3.org/TR/2001/REC-SVG-20010904/DTD/svg10.dtd">
<svg version="1.0" xmlns="http://www.w3.org/2000/svg"
 width="2007.000000pt" height="2000.000000pt" viewBox="0 0 2007.000000 2000.000000"
 preserveAspectRatio="xMidYMid meet">
<metadata>
Created by potrace 1.13, written by Peter Selinger 2001-2015
</metadata>
<g transform="translate(0.000000,2000.000000) scale(0.100000,-0.100000)"
fill="#000000" stroke="none">
<path d="M14497 15914 c-132 -20 -230 -50 -346 -105 -273 -129 -417 -303 -487
-589 -25 -101 -29 -133 -28 -265 0 -154 9 -209 54 -332 93 -252 285 -476 536
-626 83 -50 242 -112 339 -133 151 -32 383 -19 555 30 266 78 503 290 635 569
87 183 121 354 112 556 -16 359 -181 602 -522 771 -136 67 -247 102 -398 124
-126 19 -330 19 -450 0z m459 -129 c334 -58 507 -180 738 -523 86 -128 85
-123 61 -304 -50 -379 -202 -667 -431 -818 -82 -53 -242 -123 -341 -147 -96
-23 -275 -23 -378 1 -213 49 -393 153 -556 322 -188 196 -283 419 -282 664 1
139 23 234 84 350 123 237 361 399 671 455 102 18 326 18 434 0z"/>
<path d="M14912 15105 c-13 -7 -29 -18 -35 -24 -6 -6 -19 -11 -28 -11 -9 0
-27 -9 -40 -19 -20 -16 -22 -22 -12 -42 7 -13 13 -33 15 -44 2 -11 17 -27 35
-35 17 -8 34 -23 36 -32 7 -25 24 -22 53 7 14 14 35 25 48 25 30 0 52 25 38
43 -8 10 -19 58 -23 107 -4 39 -42 50 -87 25z"/>
<path d="M11005 14675 c-377 -82 -676 -405 -786 -850 -26 -105 -36 -332 -20
-446 53 -360 274 -642 596 -758 137 -49 225 -64 380 -64 328 1 627 126 866
363 292 288 402 681 287 1018 -53 153 -114 248 -243 378 -190 191 -401 305
-658 355 -115 22 -329 25 -422 4z m402 -140 c357 -68 677 -320 779 -615 54
-154 55 -275 4 -486 -89 -366 -393 -643 -800 -730 -100 -21 -302 -24 -397 -5
-204 39 -382 136 -476 259 -303 393 -247 1019 121 1363 119 111 250 181 400
213 89 19 271 20 369 1z"/>
<path d="M10733 13566 c-40 -40 -56 -76 -33 -76 5 0 19 -20 30 -45 17 -36 26
-45 54 -50 63 -12 152 53 118 87 -6 6 -8 23 -6 38 5 21 -1 32 -26 53 -17 15
-40 27 -50 27 -10 0 -24 2 -32 5 -7 2 -32 -15 -55 -39z"/>
<path d="M15176 13073 c-67 -36 -313 -128 -466 -174 -91 -28 -372 -101 -625
-164 -765 -189 -995 -278 -1380 -536 -235 -157 -405 -299 -631 -524 -283 -281
-491 -538 -729 -900 -505 -767 -1064 -1950 -1352 -2860 -172 -544 -255 -973
-283 -1453 -27 -467 53 -906 235 -1277 105 -216 251 -412 449 -608 420 -415
1055 -698 1811 -806 549 -79 625 -85 965 -85 440 -1 741 36 1155 140 1053 264
1981 930 2421 1736 149 273 262 599 313 905 56 334 54 537 -9 1348 -117 1486
-358 2798 -700 3810 -181 535 -313 829 -505 1122 -112 170 -183 215 -471 297
-87 26 -161 46 -164 46 -3 -1 -18 -8 -34 -17z m325 -216 c73 -35 208 -175 287
-295 228 -348 477 -1032 701 -1927 246 -984 387 -1996 431 -3080 13 -331 13
-971 -1 -1115 -33 -358 -195 -703 -552 -1181 -199 -268 -406 -442 -736 -620
-73 -39 -101 -59 -101 -73 0 -28 -62 -82 -191 -168 -677 -448 -1543 -624
-2694 -547 -1062 70 -1928 473 -2429 1131 l-36 47 87 113 c107 139 246 281
294 301 20 8 79 25 130 36 109 25 421 63 431 53 3 -4 36 -72 71 -150 73 -161
113 -231 168 -294 l37 -43 93 1 c118 1 182 18 372 100 83 35 156 64 163 64 7
0 49 -64 94 -143 95 -166 180 -290 215 -313 21 -14 209 -56 352 -79 l42 -7
123 186 c68 102 126 186 130 186 3 0 96 -97 205 -216 l198 -215 50 5 c28 3
103 19 168 35 110 27 122 32 164 72 61 59 117 140 198 284 37 66 73 128 80
138 11 16 25 6 141 -95 161 -141 214 -180 298 -219 62 -29 70 -30 113 -20 95
24 141 66 286 256 l84 110 54 0 c30 0 104 -4 165 -8 l111 -8 36 93 c90 229
127 403 175 826 10 87 -1 275 -23 385 -18 87 -53 174 -91 224 -38 50 -150 136
-234 181 -163 86 -262 105 -722 137 l-87 6 -40 -79 c-22 -43 -60 -125 -86
-182 l-46 -102 65 -202 65 -201 246 -40 c135 -21 250 -42 256 -46 7 -4 -32
-71 -102 -175 -61 -93 -116 -171 -120 -174 -4 -3 -129 -39 -278 -80 l-271 -75
0 -192 c0 -106 -3 -193 -7 -192 -5 0 -44 45 -88 100 -44 55 -107 126 -140 158
-56 53 -65 58 -130 69 -38 7 -132 18 -207 25 l-137 13 -173 -238 c-95 -130
-175 -237 -178 -237 -3 -1 -40 71 -83 158 -42 87 -103 196 -135 242 -72 106
-103 124 -217 124 -69 0 -89 -5 -147 -32 -88 -41 -158 -94 -278 -209 -90 -87
-100 -94 -104 -72 -2 12 -12 66 -21 118 -21 120 -85 314 -133 405 l-37 70
-205 -3 -205 -3 -133 -135 -133 -135 -162 -15 c-310 -29 -429 -58 -529 -130
-34 -26 -136 -119 -225 -207 -90 -89 -164 -159 -166 -156 -8 8 -65 164 -90
244 -14 44 -37 132 -51 195 -156 701 -65 1478 297 2521 95 273 137 347 278
487 81 80 87 83 209 131 273 107 426 141 677 148 288 9 458 -15 962 -136 601
-145 594 -144 1236 -147 632 -2 725 -10 940 -81 240 -78 379 -213 431 -416 30
-115 5 -215 -80 -325 -148 -193 -358 -281 -721 -301 -373 -22 -678 30 -1455
249 -534 150 -634 174 -885 215 -296 49 -620 54 -845 12 l-65 -12 -23 -99
c-13 -54 -22 -100 -20 -101 2 -2 66 11 143 30 136 32 374 81 425 87 24 3 25 0
32 -67 11 -101 52 -236 103 -342 80 -168 176 -293 366 -478 121 -118 390 -345
408 -345 5 0 39 43 76 95 138 194 386 491 570 682 l80 84 93 -36 c108 -41 235
-75 377 -101 82 -15 150 -19 380 -18 254 0 297 2 459 27 224 35 495 91 541
113 26 12 42 31 65 78 58 120 81 303 68 547 -9 170 -16 184 -166 302 -198 157
-292 217 -402 261 -142 55 -213 62 -740 77 -217 5 -421 13 -453 17 l-59 7
-114 270 c-132 312 -314 685 -408 832 -135 215 -197 286 -592 679 -210 210
-385 391 -388 402 -10 32 32 91 69 97 17 2 133 10 260 16 237 12 550 7 640
-11 83 -16 202 -83 365 -205 85 -64 193 -135 239 -158 77 -38 90 -42 181 -45
92 -4 101 -3 162 27 76 36 134 95 177 178 40 81 56 139 92 348 17 99 34 184
38 188 4 4 86 -31 182 -78 176 -86 260 -115 334 -115 66 0 139 27 184 68 36
32 49 58 100 192 166 432 251 861 251 1267 l0 92 43 12 c145 39 207 48 302 46
86 -2 108 -6 156 -30z m-595 -179 c-15 -124 -101 -618 -107 -618 -4 0 -103 81
-220 181 -118 99 -219 183 -226 186 -14 6 -151 -85 -341 -226 -116 -86 -141
-110 -137 -126 27 -109 108 -505 104 -509 -9 -9 -129 24 -195 54 -95 43 -191
110 -306 213 l-100 90 -153 -76 c-84 -42 -166 -90 -183 -106 -45 -46 -110
-179 -177 -366 l-61 -170 -99 -3 c-150 -5 -789 30 -803 43 -2 2 22 39 54 82
514 699 1384 1163 2555 1362 206 36 221 37 323 39 l79 2 -7 -52z m-416 -490
c105 -181 160 -344 161 -478 2 -182 -40 -265 -149 -296 -99 -29 -212 5 -284
86 -179 198 -207 354 -117 637 l30 92 62 4 c34 2 108 4 164 5 l103 2 30 -52z
m-958 -521 c54 -71 128 -224 151 -312 40 -147 45 -406 8 -420 -9 -4 -87 -31
-174 -61 l-158 -55 -27 20 c-46 32 -176 174 -219 237 -78 115 -126 235 -138
351 l-6 58 118 117 c133 132 110 123 308 126 l90 2 47 -63z m1321 -4769 c-26
-91 -71 -200 -115 -278 -75 -137 -230 -269 -355 -305 l-23 -6 0 158 c0 169 11
266 37 351 16 50 19 53 67 68 43 12 121 27 306 57 14 2 42 5 62 6 l37 1 -16
-52z m340 -206 c89 -135 166 -348 167 -458 0 -38 -2 -42 -31 -48 -17 -3 -129
-6 -249 -6 -218 0 -218 0 -223 23 -12 46 -58 398 -55 414 2 13 43 29 168 65
91 25 172 47 181 47 9 1 28 -16 42 -37z m77 -674 c16 -35 37 -92 46 -128 21
-79 24 -234 5 -310 -22 -93 -77 -196 -140 -263 l-59 -62 -56 113 c-77 153
-254 537 -258 558 -2 14 35 30 202 85 113 38 211 69 218 69 7 0 26 -28 42 -62z
m-3585 -165 l77 -6 29 -61 c68 -145 77 -324 23 -486 l-29 -85 -155 4 c-198 4
-238 19 -281 102 -60 118 -44 279 47 487 l23 52 94 0 c52 0 129 -3 172 -7z
m3148 -217 c9 -62 -9 -247 -32 -337 -23 -91 -59 -181 -106 -264 l-35 -63 -98
-7 -99 -7 -55 59 c-205 216 -258 301 -266 425 -5 90 8 110 105 160 111 58 208
74 449 77 l131 1 6 -44z m-2210 -106 c77 -100 144 -235 164 -334 20 -99 7
-191 -37 -260 -26 -40 -35 -47 -97 -65 -134 -39 -236 -62 -243 -54 -4 4 -51
113 -105 240 l-98 233 45 97 45 98 119 62 c65 34 126 61 134 60 8 -1 41 -36
73 -77z m1085 -45 c73 -61 95 -162 80 -374 -14 -217 -32 -240 -253 -328 l-130
-51 -42 65 c-87 135 -136 321 -131 505 l3 111 105 29 c129 34 276 66 312 67
15 1 40 -10 56 -24z"/>
<path d="M10882 7418 c83 -294 255 -625 455 -873 138 -171 411 -417 535 -481
l29 -15 -16 37 c-31 75 -127 204 -247 333 -299 320 -322 352 -481 660 -118
231 -177 318 -258 382 l-38 30 21 -73z"/>
</g>
</svg>
